<?xml version="1.0" encoding="UTF-8"?>
<svg id="Layer_1" xmlns="http://www.w3.org/2000/svg" version="1.1" xmlns:xlink="http://www.w3.org/1999/xlink" viewBox="0 0 99.21 99.21">
  <!-- Generator: Adobe Illustrator 29.8.3, SVG Export Plug-In . SVG Version: 2.1.1 Build 3)  -->
  <defs>
    <style>
      .st0, .st1, .st2, .st3, .st4, .st5, .st6 {
        fill-rule: evenodd;
      }

      .st0, .st7 {
        fill: #dc9c8f;
      }

      .st1 {
        fill: #fff;
      }

      .st2, .st8 {
        fill: #f0c9c0;
      }

      .st9 {
        fill: none;
      }

      .st10, .st6 {
        fill: #8a5e35;
      }

      .st11, .st5 {
        fill: #4a47b0;
      }

      .st3, .st12 {
        fill: #d29f3f;
      }

      .st4 {
        fill: #5b3717;
      }

      .st13 {
        fill: #dd5013;
      }

      .st14 {
        clip-path: url(#clippath);
      }
    </style>
    <clipPath id="clippath">
      <rect class="st9" y="0" width="99.21" height="99.21"/>
    </clipPath>
  </defs>
  <rect class="st13" width="99.21" height="99.21"/>
  <g class="st14">
    <g>
      <g>
        <g>
          <path class="st8" d="M63.2,54.31s4.98-2.72,5.55-8.77c1.79-11.82-3.98-18.63-9.08-21.21-7.49-3.8-18.29-.92-22.93,4.34-3.98,4.52-7.27,14.24-7,23.72.27,9.58,4.5,17.33,15.69,13.18,1.11,3.76,3.08,9.93,3.31,11.33,1.23,7.51,15.03,19.03,19.75-4.7.02.45-5.08-15.48-5.29-17.89Z"/>
          <g>
            <g>
              <path class="st7" d="M44.35,50.55c-.91,1.4-.52,3.29.89,4.21,1.41.91,3.28.51,4.2-.9.92-1.41.52-3.29-.89-4.19-1.4-.92-3.28-.52-4.2.88"/>
              <path class="st7" d="M32.87,52.19c.91-1.41.52-3.29-.89-4.2-.64-.42-1.38-.55-2.08-.45-.57,3.36-.1,6.01-.1,6.01,1.07.09,2.44-.4,3.07-1.37Z"/>
              <g>
                <g>
                  <path class="st1" d="M49.35,46.79c-3.54-3.97-7.02-1.02-7.02-1.02,0,0,.89,1.46,3.33,1.93,1.82.35,3.69-.9,3.69-.9"/>
                  <path class="st4" d="M42.32,45.76s1.69-1.44,3.95-.94c.06.18.2.54.21.73.02.9-.64,1.66-1.56,1.95-1.89-.58-2.6-1.74-2.6-1.74"/>
                </g>
                <g>
                  <path class="st1" d="M36.68,45.75c-3.27-3.67-6.51-.95-6.51-.95,0,0,.82,1.35,3.09,1.79,1.68.33,3.42-.84,3.42-.84"/>
                  <path class="st4" d="M30.17,44.8s1.57-1.33,3.65-.88c.06.17.2.5.2.68.02.82-.59,1.54-1.45,1.81-1.75-.55-2.41-1.62-2.41-1.62"/>
                </g>
                <path class="st6" d="M50.77,43.86l-.83.84c-2.58-2.55-6.39-1.97-7.73-1.32l-.51-1.06c2.09-1.02,6.29-1.2,9.07,1.55Z"/>
                <path class="st6" d="M38.03,43l-.83.85c-2.38-2.35-5.89-1.82-7.12-1.22l-.52-1.07c1.95-.93,5.86-1.12,8.47,1.44Z"/>
              </g>
              <g>
                <path class="st0" d="M38.33,46.19c-.69-.2-3.12,6.13-3.02,6.83.15.88,3.13,1.57,3.38,1.25.73-.93.67-7.78-.36-8.08"/>
                <path class="st7" d="M33.56,59.08c3.3,2.04,7.04.32,9.11-2.13l-1.04-.87c-1.7,2.02-4.74,3.46-7.37,1.85l-.71,1.15Z"/>
              </g>
            </g>
            <path class="st0" d="M45.43,65.56l1.5,5.18c5.12-2.82,7.57-10.27,7.57-10.27,0,0-6.86,4.02-9.07,5.09Z"/>
          </g>
          <path class="st10" d="M54.79,36.44c.85,3.75,1.74,10.6,3.55,10.66,2.09.07,1.64-4.59,4.2-4.98,1.26-.19,2.47.78,2.83,1.88,1.12,3.47-1.59,4.84-3.94,5.18,0,2.86-.24,7.05,1.87,8.46.24.06.46.05.69.07,5.68-.34,4.2-6.12,4.77-12.17.74-4.9.33-10.58-.94-13.81-4.89-.43-11.8,5.12-13.03,4.72Z"/>
          <g>
            <path class="st1" d="M52.14,24.87c.91-1.68-4.78-1.01-4.7.32.09,1.56,3.68.56,4.6-.16.06-.05.07-.1.1-.15Z"/>
            <path class="st1" d="M45.45,26.42c.49-1.42-4.33-1.06-3.87.38.35,1.09,3.53.6,3.87-.38Z"/>
          </g>
          <path class="st2" d="M67.34,46.77c-.75,2.16-3.99,5.29-5.88,4.63-1.9-.66-1.74-4.85-.99-7.02.75-2.16,2.9-3.38,4.8-2.72,1.89.66,2.82,2.95,2.07,5.11Z"/>
        </g>
        <g>
          <path class="st5" d="M63.71,32.4c-.18.76-1.19,1.2-1.95,1.64-3.89,2.24-8.03,3.99-13.16,5.55-2.08.63-4.2,1.24-6.5,1.32-2.3.08-4.55-.21-6.64-.48-4.15-.54-7.48-1.27-11.4-2.18-1.48-.34-4.29-.97-4.46-1.96-.15-.86,1.06-1.51,1.88-1.96,1.03-.56,1.93-.91,2.77-1.27,2.17-.93,3.97-1.66,5.98-2.27.1-.03.18-.05.3-.05,1.25-.06,2.67.2,4.03.37,7.99,1.01,18.04,1.62,27.3,1.13.6-.03,1.33-.15,1.86.16Z"/>
          <path class="st3" d="M28.48,31.29c.21-5.48.47-10.78,3.87-13.16,2.85-2,7.47-2.45,12.38-2.62,4.51-.16,10.56-.27,14.36.9,6.57,2.02,8.76,7.1,9.06,13.69.03.6.07,1.42-.19,1.74-.19.24-1.36.5-2.05.67-5.05,1.19-11.02,2.12-17.39,2.01-8.12-.14-14.72-1.06-20.02-3.22Z"/>
          <path class="st5" d="M49.48,15.78c-.52.06-2.42.47-3.12.1-.42-.22-.55-1.22-.1-1.65.4-.38,2.3-.45,2.92-.11.67.37.73,1.1.3,1.66Z"/>
          <path class="st11" d="M55.4,15.69c-.87-.1-1.78-.17-2.71-.21,1.7.78,3.32,2.01,4.37,3.13,2.49,2.65,3.12,6.76,3.36,10.88.07,1.31.17,2.69.11,4.09.56-.09,1.11-.19,1.66-.29.93-7.84-1.12-14.14-6.78-17.59Z"/>
          <path class="st11" d="M65.4,29.41c-.43.4-.77,1.58-.43,2.21,1.16.13,2.1-.35,3.16-.5.02-.34,0-.71,0-1.03-.03-.55-.07-1.09-.12-1.61-.82.3-1.99.37-2.61.93Z"/>
          <g>
            <g>
              <path class="st1" d="M39.45,38.79c.73-.23,2.05-.07,3.33.14.55.09,1.43.25,1.38.64-.07.46-1.11.4-1.48.38-1.18-.07-2.59-.34-3.28-.65-.1-.12-.07-.37.05-.51Z"/>
              <path class="st1" d="M45.85,38.64c-.11-.97,2.67-.8,2.47,0-.09.35-1.48.64-2.11.43-.23-.08-.34-.26-.36-.43Z"/>
              <path class="st1" d="M27.02,33.05c-.08-.34.46-.62,1.11-.72.52-.09,1.55-.07,1.49.39-.03.2-.43.47-.96.57-.62.11-1.52.2-1.63-.24Z"/>
            </g>
            <g>
              <path class="st1" d="M58.86,22.61c-.72,0-.82-.58-.99-.95-.53-1.14-1.3-2.44-1.82-3.62.14-.45.77-.43,1.24-.08.69.5,1.27,1.55,1.61,2.4.35.86.68,1.82-.04,2.26Z"/>
              <path class="st1" d="M59.01,23.87c.18-.17.56-.34.91-.15.56.3.47.84.51,1.17.05.42.09.91-.36,1.1-.68.28-1.02-.4-1.13-1-.09-.48-.21-.86.07-1.12Z"/>
            </g>
          </g>
        </g>
      </g>
      <g>
        <path class="st5" d="M118.86,117.61s-9.18-27.94-19.12-35.39c-8.37-6.27-16.7-9.89-31.24-10.03-2.13,5.55-5.56,14.76-13.45,12.35-4.42-1.35-6.31-7.41-7.5-11.86-7.06.39-12.68,1.44-17.88,2.79C8.55,80.94,1.3,116.66.89,117.61h117.97Z"/>
        <path class="st12" d="M60.86,88.74c4.54-2.09,8.56-9.77,9.3-16.51-.59-.02-1.06-.03-1.67-.04-2.13,5.55-5.56,14.76-13.45,12.35-4.42-1.35-6.29-7.51-7.5-11.86-.85.05-1.63.09-2.43.15-.05,2.42.58,4.94,1.32,7.05,1.84,5.34,6.92,12.31,14.43,8.85Z"/>
      </g>
    </g>
  </g>
</svg>