<?xml version="1.0" encoding="UTF-8"?>
<svg id="Layer_1" xmlns="http://www.w3.org/2000/svg" version="1.1" xmlns:xlink="http://www.w3.org/1999/xlink" viewBox="0 0 99.21 99.21">
  <!-- Generator: Adobe Illustrator 29.8.3, SVG Export Plug-In . SVG Version: 2.1.1 Build 3)  -->
  <defs>
    <style>
      .st0 {
        fill: #dd5013;
      }

      .st0, .st1, .st2, .st3, .st4, .st5 {
        fill-rule: evenodd;
      }

      .st6 {
        fill: #e55e75;
      }

      .st7 {
        fill: #2d2d7f;
      }

      .st1 {
        fill: #fff;
      }

      .st2, .st8 {
        fill: #db8e81;
      }

      .st9 {
        fill: none;
      }

      .st3 {
        fill: #93a334;
      }

      .st10, .st5 {
        fill: #ebb2a1;
      }

      .st4 {
        fill: #5d761e;
      }

      .st11 {
        fill: #536d19;
      }

      .st12 {
        clip-path: url(#clippath);
      }
    </style>
    <clipPath id="clippath">
      <rect class="st9" width="99.21" height="99.21"/>
    </clipPath>
  </defs>
  <rect class="st6" y="0" width="99.21" height="99.21"/>
  <g class="st12">
    <g>
      <g>
        <path class="st10" d="M63.16,53.95s4.98-2.72,5.55-8.77c1.79-11.82-3.98-18.63-9.08-21.21-7.49-3.8-18.29-.92-22.93,4.34-3.98,4.52-7.27,14.24-7,23.72.27,9.58,4.5,17.33,15.69,13.18,1.11,3.76,2.85,9.98,3.31,11.33,1,3.01,4.33,13.08,11.75,8.64,2.35-1.41,7.12-5.92,8-12.88.02.45-5.07-15.94-5.28-18.35Z"/>
        <g>
          <path class="st0" d="M62.96,50.96c-1.34-.79-2.2-1.84-2.92-3.27-1.23-2.44-.75-9.18-.26-12.78-6.29-1.61-16.05,1.96-24.62.13-5.72-1.22-11.17-4.83-13-8.25-2.36-4.41,1.57-9.7,8.11-6.41-.32-4.09,2.62-6.38,5.6-6.38,5.41,0,7.15,2.32,9.72,4.1,1.51-2.84,4.58-5.02,8.98-2.75,3.2,1.66,9.29,7.87,10.16,8.49,3.13,2.22,6.71,2.68,9.02,4.77,1.93,1.76,1.92,4.31,1.93,5.22.1,4.93-4.03,11.55-5.94,15.55-1.2,2.5-2.37,10.16-5.46,9.63-2.69-.46-1.72-5.06-1.31-8.04Z"/>
          <g>
            <g>
              <g>
                <path class="st0" d="M37.58,52.54c.33,6.59-9.6,4.98-11.12-.13,3.93,1.01,6.73-2.82,11.12.13Z"/>
                <path class="st0" d="M36.88,52.5c-1.08,6.51,8.97,6.04,11.07,1.13-4.02.55-6.37-3.57-11.07-1.13Z"/>
              </g>
              <g>
                <g>
                  <path class="st8" d="M44.31,48.22c-.91,1.4-.52,3.29.89,4.21,1.41.91,3.28.51,4.2-.9.92-1.41.52-3.29-.89-4.19-1.4-.92-3.28-.52-4.2.88"/>
                  <path class="st8" d="M33.06,49.86c.91-1.41.52-3.29-.89-4.2-.64-.42-1.38-.55-2.08-.45-.57,3.36-.4,6.01-.4,6.01,1.07.09,2.74-.4,3.37-1.37Z"/>
                  <g>
                    <g>
                      <path class="st1" d="M49.31,44.46c-3.54-3.97-7.02-1.02-7.02-1.02,0,0,.89,1.46,3.33,1.93,1.82.35,3.69-.9,3.69-.9"/>
                      <path class="st4" d="M42.28,43.44s1.69-1.44,3.95-.94c.06.18.2.54.21.73.02.9-.64,1.66-1.56,1.95-1.89-.59-2.6-1.74-2.6-1.74"/>
                    </g>
                    <g>
                      <path class="st1" d="M36.63,43.42c-3.27-3.67-6.51-.95-6.51-.95,0,0,.82,1.35,3.09,1.79,1.68.33,3.42-.84,3.42-.84"/>
                      <path class="st4" d="M30.12,42.47s1.57-1.33,3.65-.88c.06.17.2.5.2.68.02.82-.59,1.54-1.45,1.81-1.75-.55-2.41-1.62-2.41-1.62"/>
                    </g>
                    <path class="st0" d="M51.07,38.34l-.83.84c-2.58-2.55-6.39-1.97-7.73-1.32l-.51-1.06c2.09-1.02,6.29-1.21,9.07,1.55Z"/>
                    <path class="st0" d="M38.34,37.47l-.83.85c-2.38-2.35-5.89-1.82-7.12-1.22l-.52-1.07c1.95-.93,5.86-1.12,8.47,1.44Z"/>
                  </g>
                  <g>
                    <path class="st2" d="M38.29,43.87c-.69-.2-3.12,6.13-3.02,6.83.15.88,3.12,1.57,3.38,1.25.73-.93.67-7.78-.37-8.08"/>
                    <path class="st8" d="M39.72,57.76c-1.41.55-2.98.61-4.43-.28l-.7,1.15c1.96,1.21,4.06,1.08,5.89.28-.27-.37-.53-.75-.75-1.15Z"/>
                  </g>
                </g>
                <path class="st2" d="M45.39,65.21l1.5,5.18c5.12-2.82,7.57-10.27,7.57-10.27,0,0-6.86,4.03-9.07,5.09Z"/>
              </g>
              <g>
                <path class="st7" d="M29.67,47.81h0c-1.27-.06-2.2-.28-2.76-.64-2.17-1.39-1.94-5.77-1.74-7.59.04-.32.28-.58.6-.64,2.96-.51,6.26-.48,8.52-.37.96.05,1.93.12,2.89.22.19.02.37.12.49.27.12.15.18.34.16.54-.3,2.86-.96,6.31-3.36,7.59-.95.51-3.19.7-4.81.61ZM26.58,40.29c-.24,2.86.19,5.05,1.13,5.65.12.08.63.34,2.04.41h0c1.68.08,3.53-.16,4.05-.44,1.62-.87,2.22-3.4,2.51-5.73-.69-.06-1.39-.11-2.08-.15-2.88-.14-5.51-.05-7.65.26Z"/>
                <path class="st7" d="M47.45,48.75h0c-1.62-.08-3.83-.49-4.72-1.09-2.26-1.52-2.57-5.02-2.58-7.89,0-.2.08-.38.21-.52.14-.14.32-.21.52-.21.96,0,1.93.02,2.9.07,2.25.11,5.54.41,8.44,1.21.32.09.53.37.53.69.02,1.83-.18,6.21-2.49,7.38-.59.3-1.53.42-2.8.36ZM41.61,40.5c.06,2.35.4,4.93,1.93,5.95.49.33,2.3.76,3.98.85,1.42.07,1.95-.14,2.07-.2.99-.51,1.64-2.64,1.69-5.51-2.1-.53-4.71-.88-7.59-1.02-.69-.04-1.39-.06-2.09-.06Z"/>
                <path class="st7" d="M30.76,38.52c0,.44-.03.87-.07,1.31,9.54-.13,24.33,1.39,31.2,2.12.5-.44,1.25-.7,2.35-.82-6.64-.68-23.53-2.58-33.48-2.61Z"/>
              </g>
            </g>
            <path class="st5" d="M67.3,46.36c-.75,2.16-3.99,5.29-5.88,4.63-1.9-.66-1.74-4.85-.99-7.02.75-2.16,2.9-3.38,4.8-2.72,1.89.66,2.82,2.95,2.07,5.11Z"/>
          </g>
          <g>
            <path class="st1" d="M39.34,23.2c.91-1.68-4.78-1.01-4.7.32.09,1.56,3.68.56,4.6-.16.06-.04.07-.1.1-.15Z"/>
            <path class="st1" d="M32.66,24.75c.49-1.42-4.33-1.06-3.87.38.35,1.09,3.53.6,3.87-.38Z"/>
          </g>
        </g>
      </g>
      <g>
        <path class="st3" d="M118.86,117.61s-9.18-27.94-19.12-35.39c-8.37-6.27-16.78-9.89-31.32-10.03-2.13,5.55-5.48,14.76-13.38,12.35-4.42-1.35-6.31-7.41-7.49-11.86-7.06.39-12.68,1.44-17.88,2.79C8.55,80.94,1.3,116.66.89,117.61h117.97Z"/>
        <path class="st11" d="M60.86,88.74c4.54-2.09,8.48-9.77,9.23-16.51-.59-.02-1.06-.03-1.67-.04-2.13,5.55-5.48,14.76-13.38,12.35-4.42-1.35-6.29-7.51-7.49-11.86-.85.05-1.63.09-2.43.15-.05,2.42.58,4.94,1.32,7.05,1.84,5.34,6.92,12.31,14.43,8.85Z"/>
      </g>
    </g>
  </g>
</svg>