<?xml version="1.0" encoding="UTF-8"?>
<svg id="Layer_1" xmlns="http://www.w3.org/2000/svg" version="1.1" xmlns:xlink="http://www.w3.org/1999/xlink" viewBox="0 0 99.21 99.21">
  <!-- Generator: Adobe Illustrator 29.8.3, SVG Export Plug-In . SVG Version: 2.1.1 Build 3)  -->
  <defs>
    <style>
      .st0, .st1 {
        fill: #2d2d7f;
      }

      .st2, .st3 {
        fill: #5d761e;
      }

      .st4 {
        fill: #fff;
      }

      .st4, .st5, .st1, .st3, .st6, .st7 {
        fill-rule: evenodd;
      }

      .st5, .st8 {
        fill: #db8e81;
      }

      .st9 {
        fill: none;
      }

      .st10, .st6 {
        fill: #ebb2a1;
      }

      .st11 {
        fill: #93a334;
      }

      .st7 {
        fill: #8a5e35;
      }

      .st12 {
        clip-path: url(#clippath);
      }
    </style>
    <clipPath id="clippath">
      <rect class="st9" width="99.21" height="99.21"/>
    </clipPath>
  </defs>
  <rect class="st11" y="0" width="99.21" height="99.21"/>
  <g class="st12">
    <g>
      <g>
        <path class="st1" d="M120.61,117.61s-9.18-27.94-19.12-35.39c-8.37-6.27-16.77-9.87-31.31-10.01-2.13,5.55-5.49,14.74-13.39,12.34-4.42-1.35-6.31-7.41-7.5-11.86-7.06.39-12.68,1.44-17.88,2.79C10.3,80.94,3.06,116.66,2.65,117.61h117.97Z"/>
        <path class="st2" d="M62.62,88.74c4.54-2.09,8.5-9.75,9.24-16.49-.59-.02-1.06-.03-1.67-.04-2.13,5.55-5.49,14.74-13.39,12.34-4.42-1.35-6.29-7.51-7.5-11.86-.85.05-1.63.09-2.43.15-.05,2.42.58,4.94,1.32,7.05,1.84,5.34,6.92,12.31,14.43,8.85Z"/>
      </g>
      <g>
        <g>
          <path class="st7" d="M77.65,33.75c-1.92-1.21-4.44-2.05-5.76-3.25-1.94-1.76-2.47-4.86-3.57-7.36-.57-1.31-1.28-2.57-2.19-3.65-4.67-.41-9.35-.64-14-.33-6.95.48-13.76,3.23-20.68,3.47-2.37,3.21-4.01,6.79-7.3,9.44-1.9,1.54-4.39,2.47-4.85,4.39-.63,2.67,2.11,4.74,4.8,5.21,1.65.29,3.18-.24,4.52-.05-2.68,4.41-.42,10.43,5.1,10.27,2.85-.08,4.2-2.83,4.51-5.48,9.67-.16,19.45-.21,29.05-.44,1.2,1.33,1.65,2.72,3.63,3.18,3.71.87,6.68-2.43,5.58-6.39,1.52.24,3.02.46,4.02.1,3.72-3.2-.08-7.4-2.86-9.15Z"/>
          <path class="st10" d="M64.92,54.92s2.81-3.81,3.18-9.95c-1.69-6.39-2.53-17.8-7.76-20.24-7.7-3.59-18.52-.3-23.03,5.17-3.87,4.71-6.86,14.65-6.26,24.21.6,9.68,5.14,17.37,16.3,12.78,1.25,3.77,3.23,9.99,3.73,11.35.82,2.21,3.14,6.52,7.94,6.69,4.52.16,8.09-2.8,11.17-12.73.03.45-4.96-14.87-5.26-17.29Z"/>
          <g>
            <path class="st7" d="M31.09,48.08s-.47,5.46,1.43,6.28c1.37.2,3.04.32,4.47.14,5.46-.69,11.15,2.21,15.44.08.9-.44,2.27-1.31,2.93-2.48,2.98-5.18.14-18.76,3.59-24.41,1.62-.44,4.76,2.07,5.42,3.77,2.02,5.26.65,19.97-.94,27.84-1.95,9.63-12.02,17.73-21.78,18.13-3.09.13-6.44-.63-9.11-3.07-3.06-2.8-4.01-6.91-3.79-11.19.1-1.95.77-3.97,1.05-6.28.41-3.45,1.05-6.19,1.3-8.82Z"/>
            <g>
              <path class="st8" d="M45.67,49.77c-.87,1.45-.4,3.34,1.04,4.22,1.45.87,3.34.41,4.21-1.05s.41-3.34-1.04-4.21c-1.45-.88-3.33-.41-4.22,1.04"/>
              <path class="st8" d="M34.36,51.81c.88-1.45.41-3.34-1.04-4.21-.66-.4-1.41-.51-2.12-.38-.45,3.42.19,6.06.39,6.06,1.09.05,2.17-.47,2.76-1.47Z"/>
              <g>
                <g>
                  <path class="st4" d="M50.6,45.11c-3.72-3.89-7.14-.8-7.14-.8,0,0,.95,1.44,3.43,1.83,1.85.29,3.71-1.04,3.71-1.04"/>
                  <path class="st3" d="M43.46,44.31s1.66-1.51,3.95-1.09c.07.18.23.53.24.73.05.9-.59,1.7-1.51,2.02-1.93-.52-2.69-1.67-2.69-1.67"/>
                </g>
                <g>
                  <path class="st4" d="M38.11,44.4c-3.44-3.6-6.61-.74-6.61-.74,0,0,.88,1.33,3.18,1.7,1.72.27,3.43-.96,3.43-.96"/>
                  <path class="st3" d="M31.49,43.66s1.53-1.4,3.66-1.01c.07.17.22.5.23.68.05.83-.54,1.58-1.4,1.88-1.78-.49-2.49-1.55-2.49-1.55"/>
                </g>
              </g>
              <g>
                <path class="st5" d="M40.26,44.9c-.71-.18-2.95,6.3-2.81,7.01.18.88,3.21,1.48,3.46,1.15.7-.97.41-7.89-.65-8.15"/>
                <path class="st8" d="M35.05,58.77c3.41,1.95,7.13.09,9.14-2.46l-1.08-.85c-1.65,2.1-4.67,3.66-7.38,2.12l-.68,1.19Z"/>
              </g>
            </g>
            <g>
              <path class="st4" d="M52.5,69.31c.26,1.69,3.9-.86,2.42-1.67-.77-.42-2.04.93-2.42,1.67Z"/>
              <path class="st4" d="M51.41,72.08c.19-.3.43-1.04-.21-1.38-.84-.45-2.48.54-3.2.81-.89.33-2.69.55-2.86,1.6-.23,1.49,2.39.72,3.28.42.47-.16.92-.36,1.32-.52.67-.26,1.28-.35,1.67-.94Z"/>
            </g>
          </g>
          <g>
            <path class="st7" d="M79.55,47.22c.89,3.27.05,6.62-3.09,7.69-4.54,1.54-7.82-.62-9.05-2.35-1.48-2.08-1.97-4.79-2.71-7.48-2.39-8.7-9.92-18.98-20.85-19.48,1.78-2.58,13.31-9.62,17.39-9.49,4.73.15,7.98,3.22,9.7,6.24,1.41,2.49,1.4,5.95,3.33,8.75,2.33,3.38,7.91,4.74,10.1,7.24,2.83,3.25,2.65,11.94-4.82,8.89Z"/>
            <path class="st6" d="M71.16,50.11c-.72,2.31-4.02,5.73-6.05,5.1-2.03-.63-2.01-5.07-1.29-7.38.71-2.31,2.94-3.67,4.96-3.05,2.03.63,3.09,3.01,2.37,5.32Z"/>
            <path class="st7" d="M56.66,32.72c-4.34-.49-8.97.67-15.6,3.41-5.08,2.1-15.27,1.55-19.71-4.48-1.1-1.49-2.71-3.83-1.09-6.32.77-1.2,3.68-.22,5.2.2-.73-1.48-2.54-5.4-.67-7.7,2.22-2.73,6.31.08,9.94.33,5.77.4,7.2-6.76,16-5.79,3.88.43,6.77,1.77,8.94,3.62,6.56,5.6,8.54,18.02-3.01,16.73Z"/>
            <g>
              <path class="st4" d="M66.84,23.84c-1.15-.07-2.75-1.17-4.26-2.36-.64-.51-1.68-1.34-1.29-1.97.46-.75,1.79.01,2.26.29,1.49.87,3.12,2.22,3.78,3.2.04.27-.21.68-.48.84Z"/>
              <path class="st4" d="M61.52,23.01c-.65,1.74-4.17-.32-3.24-1.55.4-.54,2.47-.17,3.13.59.23.27.23.66.12.96Z"/>
              <path class="st4" d="M53.38,16.3c-.17.64-1.11.77-2.04.55-.75-.18-2.1-.87-1.63-1.62.21-.33.95-.54,1.73-.37.92.19,2.17.62,1.95,1.44Z"/>
            </g>
          </g>
        </g>
        <g>
          <path class="st0" d="M32.03,49h0c-1.24-.06-2.15-.28-2.7-.64-2.13-1.39-1.9-5.77-1.7-7.59.03-.32.28-.58.59-.64,2.89-.51,6.13-.48,8.33-.37.94.05,1.89.12,2.83.22.19.02.36.12.48.27.12.15.17.34.15.54-.3,2.86-.94,6.31-3.29,7.59-.93.51-3.12.7-4.71.61ZM29,41.49c-.24,2.86.18,5.05,1.1,5.65.12.08.61.34,2,.41h0c1.65.08,3.45-.17,3.96-.44,1.59-.87,2.17-3.4,2.46-5.73-.68-.06-1.36-.11-2.04-.14-2.81-.14-5.38-.06-7.48.26Z"/>
          <path class="st0" d="M49.42,49.95h0c-1.59-.08-3.75-.49-4.62-1.09-2.21-1.52-2.51-5.02-2.53-7.89,0-.2.07-.38.21-.52.13-.14.32-.21.51-.21.94,0,1.89.02,2.83.07,2.2.11,5.42.42,8.25,1.21.31.09.52.37.52.69.02,1.83-.18,6.21-2.43,7.38-.58.3-1.5.42-2.74.36ZM43.71,41.7c.06,2.35.39,4.93,1.89,5.95.48.33,2.25.76,3.9.85,1.39.07,1.9-.14,2.03-.2.97-.51,1.61-2.64,1.65-5.51-2.06-.53-4.61-.88-7.42-1.02-.68-.04-1.36-.06-2.04-.06Z"/>
          <path class="st0" d="M33.09,39.71c0,.44-.03.87-.07,1.31,9.33-.13,27.37,1.79,34.09,2.52,3.55.37,3.26,2.2,3.26,2.2.69.86.93,1.99.93,1.99.43-.1,1.51-4.62-2.01-5.18-6.49-.67-26.46-2.8-36.19-2.83Z"/>
        </g>
      </g>
    </g>
  </g>
</svg>