<?xml version="1.0" encoding="UTF-8"?>
<svg id="Layer_1" xmlns="http://www.w3.org/2000/svg" version="1.1" xmlns:xlink="http://www.w3.org/1999/xlink" viewBox="0 0 99.21 99.21">
  <!-- Generator: Adobe Illustrator 29.8.3, SVG Export Plug-In . SVG Version: 2.1.1 Build 3)  -->
  <defs>
    <style>
      .st0, .st1, .st2, .st3, .st4, .st5, .st6, .st7 {
        fill-rule: evenodd;
      }

      .st0, .st8 {
        fill: #dd5013;
      }

      .st9, .st3 {
        fill: #2d2d7f;
      }

      .st1 {
        fill: #fff;
      }

      .st2, .st10 {
        fill: #db8e81;
      }

      .st11 {
        fill: none;
      }

      .st12 {
        fill: #efffb3;
      }

      .st13, .st4 {
        fill: #ebb2a1;
      }

      .st5 {
        fill: #4a47b0;
      }

      .st6 {
        fill: #8a5e35;
      }

      .st7 {
        fill: #c4956b;
      }

      .st14 {
        clip-path: url(#clippath);
      }
    </style>
    <clipPath id="clippath">
      <rect class="st11" width="99.21" height="99.21"/>
    </clipPath>
  </defs>
  <rect class="st12" y="0" width="99.21" height="99.21"/>
  <g class="st14">
    <g>
      <g>
        <path class="st13" d="M63.94,56.55s2.9-3.67,3.47-9.73c-1.45-6.38-1.9-17.67-6.99-20.26-7.49-3.8-18.29-.92-22.93,4.34-3.98,4.52-7.27,14.24-7,23.72.27,9.58,4.5,17.33,15.69,13.18,1.11,3.76,2.85,9.98,3.31,11.33,1,3.01,5.2,10.41,12.62,5.83,2.35-1.45,3.74-7.02,7.1-10.52.02.45-5.05-15.49-5.26-17.9Z"/>
        <g>
          <g>
            <path class="st10" d="M45.09,50.82c-.91,1.4-.51,3.29.89,4.2,1.41.91,3.28.51,4.2-.9.91-1.41.52-3.29-.89-4.19-1.4-.92-3.28-.52-4.2.89"/>
            <path class="st10" d="M33.84,52.46c.91-1.41.52-3.29-.89-4.2-.64-.42-1.38-.55-2.08-.45-.57,3.36,0,5.99.18,6,1.07.09,2.15-.39,2.78-1.36Z"/>
            <g>
              <g>
                <path class="st1" d="M50.09,47.06c-3.54-3.97-7.02-1.02-7.02-1.02,0,0,.89,1.46,3.33,1.92,1.82.35,3.69-.9,3.69-.9"/>
                <path class="st3" d="M43.06,46.03s1.69-1.44,3.95-.94c.06.18.2.54.21.73.02.9-.64,1.66-1.56,1.95-1.89-.58-2.6-1.74-2.6-1.74"/>
              </g>
              <g>
                <path class="st1" d="M37.41,46.02c-3.27-3.67-6.51-.95-6.51-.95,0,0,.82,1.35,3.09,1.79,1.68.33,3.42-.84,3.42-.84"/>
                <path class="st3" d="M30.9,45.07s1.56-1.33,3.65-.88c.06.17.2.5.2.68.02.83-.59,1.55-1.45,1.81-1.75-.54-2.41-1.62-2.41-1.62"/>
              </g>
              <path class="st3" d="M51.5,44.13l-.83.84c-2.58-2.55-6.39-1.97-7.73-1.32l-.51-1.06c2.09-1.02,6.29-1.2,9.07,1.55Z"/>
              <path class="st3" d="M38.77,43.27l-.83.85c-2.38-2.36-5.89-1.82-7.12-1.22l-.52-1.07c1.95-.93,5.86-1.12,8.47,1.44Z"/>
            </g>
            <g>
              <path class="st2" d="M39.07,46.46c-.69-.2-3.12,6.13-3.02,6.83.15.88,3.12,1.57,3.38,1.25.73-.93.67-7.78-.37-8.08"/>
              <path class="st10" d="M34.3,59.35c3.3,2.04,7.04.33,9.11-2.13l-1.04-.87c-1.7,2.02-4.74,3.46-7.37,1.85l-.71,1.15Z"/>
            </g>
          </g>
          <path class="st2" d="M46.17,67.8l1.5,5.18c5.12-2.82,7.57-10.27,7.57-10.27,0,0-6.86,4.02-9.07,5.09Z"/>
        </g>
        <g>
          <path class="st5" d="M24.62,22.61c-.15,4.31,3.01,6.51,5.82,7.66-.65.66-3.43-.05-3.04,1.12,1.34,4.07,3.98,5.21,7.53,4.87,7.32-.68,17.4-7.64,20.21.97.99,3,1.85,12.03,3.93,12.1,2.09.07,1.63-4.59,4.2-4.98,1.26-.19,2.47.78,2.83,1.88,1.12,3.47-1.59,4.84-3.94,5.18,0,2.86-.24,7.05,1.87,8.46,3.21.76,5.18-2.3,6.76-4.89,1.81-3,2.11-11.45,1.55-15.43-.68-5.04-2.98-9.04-8.06-9.09-1.82-10.17-12.12-9.85-22.32-9-5.4.45-10.55.25-14.29.01-1.03-.06-2.99-.5-3.04,1.13Z"/>
          <g>
            <path class="st1" d="M52.77,25.81c1.26-1.96-4.45-2.37-4.67-.64-.26,2.02,3.48,1.54,4.53.82.07-.04.09-.11.14-.18Z"/>
            <path class="st1" d="M45.89,26.31c.79-1.71-4-2.32-3.87-.38.1,1.48,3.32,1.56,3.87.38Z"/>
          </g>
        </g>
        <path class="st4" d="M68.08,49.01c-.75,2.16-3.99,5.29-5.88,4.63-1.9-.66-1.74-4.86-.99-7.02.75-2.16,2.9-3.38,4.8-2.72,1.89.66,2.82,2.95,2.07,5.11Z"/>
        <g>
          <path class="st7" d="M73.51,39.94c3.02,2.86,6.42,5.2,9.25,8.36.9,1,2.13,2.1,2.15,3.67-1.64.62-3.2-.5-4.56-1.14-9.63-4.56-18.63-10.4-27.36-15.96-7.51-4.78-15.09-9.66-22.17-15.07-1.14-.87-2.27-1.82-3.42-2.79-1.04-.88-2.71-1.64-2.79-3.29,1.36-.63,2.85.03,4.05.38,3.72,1.09,7.18,2.58,10.51,4.05,4.23-2.42,8.83-5.3,14.44-5.83,1.41-.13,4.43.05,6.21.89,1.08.5,2.15,1.45,3.42,2.15,3.63,2.01,10.36,2.73,12.16,6.71,1.25,2.76.62,6.41.13,9.37-.51,3.07-1.26,5.7-2.03,8.49Z"/>
          <path class="st6" d="M55.4,14.86c.26-.51,1.28-.67,2.28-.38,1.48.43,2.62,1.91,4.69,2.91.92.45,5.12,1.41,4.81,2.79-.21.93-2.66.66-3.67.51-1.35-.2-2.64-.75-3.55-1.14-1.13-.49-2.24-.99-3.04-1.65-.76-.62-2.15-1.8-1.52-3.04Z"/>
          <path class="st8" d="M55.68,30.78c5.53,3.49,11.33,6.78,17.84,9.13.33-1.2.66-2.38.97-3.58-11.95-5.51-22.44-12.26-32.21-19.96-1.06.59-2.09,1.19-3.09,1.77,0,0-.02,0-.03-.01,4.7,5.06,10.61,8.92,16.52,12.64Z"/>
        </g>
      </g>
      <g>
        <path class="st0" d="M118.86,117.61s-9.18-27.94-19.12-35.39c-8.37-6.27-16.7-9.89-31.24-10.03-2.13,5.55-5.56,14.76-13.45,12.36-4.42-1.35-6.31-7.41-7.49-11.86-7.06.39-12.69,1.44-17.88,2.79C8.55,80.94,1.3,116.66.89,117.61h117.97Z"/>
        <path class="st9" d="M60.86,88.74c4.54-2.09,8.56-9.77,9.3-16.51-.59-.02-1.06-.03-1.67-.04-2.13,5.55-5.56,14.76-13.45,12.36-4.42-1.35-6.29-7.51-7.49-11.86-.85.05-1.63.09-2.43.15-.05,2.42.59,4.94,1.32,7.05,1.84,5.34,6.92,12.31,14.43,8.85Z"/>
      </g>
    </g>
  </g>
</svg>