<?xml version="1.0" encoding="UTF-8"?>
<svg id="Layer_1" xmlns="http://www.w3.org/2000/svg" version="1.1" xmlns:xlink="http://www.w3.org/1999/xlink" viewBox="0 0 99.21 99.21">
  <!-- Generator: Adobe Illustrator 29.8.3, SVG Export Plug-In . SVG Version: 2.1.1 Build 3)  -->
  <defs>
    <style>
      .st0 {
        fill: #e55e75;
      }

      .st1, .st2 {
        fill: #2d2d7f;
      }

      .st3 {
        fill: #fff;
      }

      .st3, .st4, .st5, .st2, .st6, .st7 {
        fill-rule: evenodd;
      }

      .st4, .st8 {
        fill: #db8e81;
      }

      .st9 {
        fill: none;
      }

      .st5 {
        fill: #93a334;
      }

      .st10, .st6 {
        fill: #ebb2a1;
      }

      .st7 {
        fill: #4a47b0;
      }

      .st11 {
        clip-path: url(#clippath);
      }
    </style>
    <clipPath id="clippath">
      <rect class="st9" y="0" width="99.21" height="99.21"/>
    </clipPath>
  </defs>
  <rect class="st0" y="0" width="99.21" height="99.21"/>
  <g class="st11">
    <g>
      <g>
        <path class="st10" d="M61.91,55.68s2.9-3.67,3.47-9.73c-1.45-6.38-1.9-17.67-6.99-20.26-7.49-3.8-18.29-.92-22.93,4.34-3.98,4.52-7.27,14.24-7,23.72.27,9.58,4.5,17.33,15.69,13.18,1.11,3.76,2.85,9.98,3.31,11.33.89,2.67,3.91,10.07,9.57,7.68,2.76-1.16,7.46-5.12,10.16-12.37.02.45-5.05-15.49-5.26-17.9Z"/>
        <g>
          <path class="st7" d="M22.8,23.23c1.46-1.61,3.77-1.93,4.82-3.69,1.29-2.16.95-3.12,1.38-5.04.59-2.62,2.23-4.99,4.35-6.42,2.73-1.85,8.69-2.83,11.7.79,1.03,1.23,1.44,3.26,3.15,4.44,2.51,1.73,9.04-1.22,11.55,3.21,1.47,2.6-.12,5.5,2.6,7.23,2.42,1.53,7.33-1.83,9.85,3.35,2.09,4.31-2.25,7.03-1.14,10.16.74,2.08,2.4,2.44,2.87,7.08.45,4.45-3.59,8.63-9,8.13.37-1.82-.58-3.68-2.2-3.91-2.4-.35-3.54,3.02-4.83,5.07-.24,1.14-.52,2.27-.83,3.15-2.34,6.8-7.13,14.72-16.46,15.31-3.9.25-7.13-.37-9.81-2.95-1.81-1.74-3.44-4.66-3.55-8.5-.12-4.46.64-7.64,1.3-11.58.04,3.06-.57,4.7,1.94,6.09,1.51-1.49,2.06-2.23,4.61-2.07,2.07.12,4.7.36,6.88,1.68,1.11.68,1.48,2.6,2.65,3.05,2.46.94,6.61-1.63,8.06-2.68.9-.64,2.33-2.35,3.57-3.75.66-1.82,1-4.06-.38-5.01-1.47-.48-2.86-.17-4.06-.88-2.28-1.95,2.6-6.54-.25-7.95-2.39-1.18-5.29,1.57-7.26.7-1.15-.51-1.36-2.22-1.1-3.75.37-2.14,2.06-4.57-.04-5.62-1.34-.67-2.85-.13-3.8.4-1.47.8-2.4,2.45-3.51,3.09-.97.56-2.31.64-3.04,2-.79,1.46-2.51,4.89-2.51,4.89-4.86.55-7.42-3.32-5.43-7.87-4.61-.47-4.72-5.25-2.07-8.17Z"/>
          <g>
            <g>
              <g>
                <g>
                  <path class="st3" d="M48.06,46.19c-3.54-3.97-7.02-1.02-7.02-1.02,0,0,.89,1.46,3.33,1.92,1.82.35,3.69-.9,3.69-.9"/>
                  <path class="st2" d="M41.03,45.16s1.69-1.44,3.95-.94c.06.18.2.54.21.73.02.9-.64,1.66-1.56,1.95-1.89-.59-2.6-1.74-2.6-1.74"/>
                </g>
                <path class="st2" d="M48.81,43.21l-.79.85c-2.53-2.52-6.21-1.89-7.5-1.22l-.51-1.06c2.01-1.04,6.07-1.29,8.81,1.43Z"/>
              </g>
              <g>
                <g>
                  <path class="st3" d="M35.38,45.15c-3.27-3.67-6.51-.95-6.51-.95,0,0,.82,1.35,3.09,1.79,1.68.33,3.42-.84,3.42-.84"/>
                  <path class="st2" d="M28.87,44.2s1.57-1.33,3.65-.88c.06.17.2.5.2.68.02.83-.59,1.54-1.45,1.81-1.75-.54-2.41-1.62-2.41-1.62"/>
                </g>
                <path class="st2" d="M36.46,42.52l-.79.86c-2.33-2.33-5.73-1.75-6.91-1.13l-.51-1.06c1.87-.97,5.66-1.2,8.22,1.33Z"/>
              </g>
              <g>
                <path class="st8" d="M43.06,49.95c-.91,1.4-.51,3.29.89,4.2,1.41.91,3.28.51,4.2-.9.91-1.41.52-3.29-.89-4.19-1.4-.92-3.29-.52-4.2.89"/>
                <path class="st8" d="M31.81,51.59c.91-1.41.52-3.29-.89-4.2-.64-.42-1.38-.55-2.08-.45-.57,3.36-.35,6-.16,6.01,1.07.09,2.5-.4,3.12-1.37Z"/>
                <g>
                  <path class="st4" d="M36.79,45.61c-.67-.19-2.95,6.18-2.83,6.88.15.88,3.04,1.54,3.29,1.21.69-.94.55-7.8-.46-8.09"/>
                  <path class="st8" d="M32.25,58.23c3.23,2,6.83.23,8.8-2.25l-1.02-.86c-1.63,2.05-4.55,3.53-7.12,1.95l-.67,1.16Z"/>
                </g>
              </g>
            </g>
            <path class="st6" d="M66.64,53.24c-.75,2.16-3.99,5.29-5.88,4.63-1.9-.66-1.74-4.86-.99-7.02.75-2.16,2.9-3.38,4.8-2.72,1.89.66,2.82,2.95,2.07,5.11Z"/>
          </g>
          <g>
            <g>
              <path class="st3" d="M68.96,39.65c-1.48.2-1.44-1.73-.56-2.57,1.5-.21,1.38,1.78.56,2.57Z"/>
              <path class="st3" d="M67.92,32.79c-.49,1.87-2.19,1.05-2.73-.2-.41-.94-.99-4.2.9-3.58.35.12,1.49,1.77,1.68,2.22.2.46.24,1.17.14,1.55Z"/>
            </g>
            <g>
              <path class="st3" d="M32.63,18.05c.18-1.15,2.32-4.32,3.57-3.58.57.34.76,1.19.31,1.94-.84,1.42-3.08,3.42-3.89,1.64Z"/>
              <path class="st3" d="M33.7,12.11c-1.8-.35.69-4.19,1.98-3.08.32.27.4.96.08,1.48-.44.72-1.61,1.69-2.07,1.6Z"/>
              <path class="st3" d="M40.68,10.17c-.26.84-1.73,3.05-2.63,2.38-.21-.15-.34-.83-.27-1.13.3-1.24,2.42-2.79,2.9-1.24Z"/>
            </g>
          </g>
        </g>
      </g>
      <g>
        <path class="st5" d="M117.1,117.61s-9.18-27.94-19.12-35.39c-8.37-6.27-16.85-10.11-31.39-10.24-2.13,5.55-5.41,14.98-13.31,12.57-4.42-1.35-6.31-7.41-7.49-11.86-7.06.39-12.68,1.44-17.88,2.79C6.79,80.94-.45,116.66-.86,117.61h117.97Z"/>
        <path class="st1" d="M59.1,88.74c4.54-2.09,8.42-9.99,9.16-16.73-.59-.02-1.06-.03-1.67-.04-2.13,5.55-5.41,14.98-13.31,12.57-4.42-1.35-6.29-7.51-7.49-11.86-.85.05-1.63.09-2.43.15-.05,2.42.59,4.94,1.32,7.05,1.84,5.34,6.92,12.31,14.43,8.85Z"/>
      </g>
    </g>
  </g>
</svg>