<?xml version="1.0" encoding="UTF-8"?>
<svg id="Layer_1" xmlns="http://www.w3.org/2000/svg" version="1.1" xmlns:xlink="http://www.w3.org/1999/xlink" viewBox="0 0 99.21 99.21">
  <!-- Generator: Adobe Illustrator 29.8.3, SVG Export Plug-In . SVG Version: 2.1.1 Build 3)  -->
  <defs>
    <style>
      .st0, .st1 {
        fill: #2d2d7f;
      }

      .st2 {
        fill: #fff;
      }

      .st2, .st3, .st1, .st4, .st5, .st6 {
        fill-rule: evenodd;
      }

      .st7 {
        fill: none;
      }

      .st8, .st5 {
        fill: #8a5e35;
      }

      .st3 {
        fill: #93a334;
      }

      .st9, .st6 {
        fill: #c4956b;
      }

      .st4 {
        fill: #513826;
      }

      .st10 {
        fill: #dd5013;
      }

      .st11 {
        clip-path: url(#clippath);
      }
    </style>
    <clipPath id="clippath">
      <rect class="st7" width="99.21" height="99.21"/>
    </clipPath>
  </defs>
  <rect class="st10" y="0" width="99.21" height="99.21"/>
  <g class="st11">
    <g>
      <g>
        <path class="st9" d="M60.32,56.27s2.89-3.67,3.47-9.73c-1.45-6.38-1.9-17.67-6.99-20.26-7.49-3.8-18.29-.92-22.93,4.34-3.98,4.52-7.27,14.24-7,23.72.27,9.58,4.5,17.33,15.69,13.18,1.11,3.76,2.85,9.98,3.31,11.33.96,2.88,5.24,11.73,11.97,8.04,2.52-1.38,3.94-8.76,7.75-12.73.02.45-5.05-15.49-5.26-17.9Z"/>
        <g>
          <path class="st4" d="M80.75,31.76c.21-.71.22-2.05-.69-2.48.45-.55.97-.76,1.28-1.3,1.13-2-.73-4.97-2.91-4.81.93-1.63-1-3.79-2.63-3.29.12-2.21-1.82-3.64-3.55-3.15.03-1.72-1.54-2.6-2.77-2.47,1.54-2.12-.6-5.78-3.15-5.08-.76.21-1.45.75-1.84,1.42-.74-.62-1.45-1.32-2.59-.91-.52-1.51-1.53-1.72-2.77-1.33-.22-.1,0-.76-.1-1.09-.82-3.77-5.41-1.91-6.09.34-.54-.21-.82-.85-1.52-.99-.95-.18-2.07.34-2.54,1.21-.58-.3-.78-.9-1.46-1.14-1.46-.5-3.28.65-3.39,2.08-.74-.35-2.16.22-2.23,1.08-1.51-1.49-5.58-.05-5.52,2.24-1.29-.57-3.11.49-2.98,1.9-1.69.26-2.26,1.73-1.82,3.17-1.06-.4-2.56-.96-4.11.12-1.25.87-1.61,2.86-.72,4.6-2.04.31-2.68,1.89-1.85,3.69-.28.19-.89.05-1.27.17-3.43,1.01-3.04,5.08-.33,6.95-1.72.66-1.47,3.18.06,4.14-2.14,1.17-2.76,3.22-1.47,5.42,1.1,1.89,4.14,2.28,6.08,1.88.68-3.03,1.36-5.2,2.17-6.76,1.31-.68,2.2-1.67,2.41-2.6.35.23.75.39,1.2.43,1.04.1,2-.4,2.49-1.21.36.48.9.83,1.57.89.71.07,1.35-.21,1.8-.66.86.72,2.48,1.36,4.43,1.64,2.24.33,4.25.1,5.2-.52.37.76,1.08,1.35,1.98,1.58-.49.45-.83,1.05-.9,1.73-.17,1.58,1.05,2.99,2.74,3.15.18.02.36.01.53,0-.25.3-.44.63-.48,1.03-.12,1.08.69,2.03,1.81,2.23-.61,4.78-2.7,9.48-1.9,9.57,2.11-.5,3.99-6.84,5.54-6.78.86.03,1.56.54,1.88.96,2.36,3.17.9,7.04-2.82,7.86-2.46,2.31-1.08,5.05,0,5.58.78.38,1.61.14,2.49-.18,1.09.98,2.62,1.86,4.2,1.23,1.65-.66,2.49-2.45,2.12-4.19,1.18.39,2.94-.72,2.87-1.86.83.75,1.69,1.6,2.83,1.18,1.26-.45,1.72-1.87,1.12-3.38,1.36-.18,2.18-1.21,1.93-2.34,2.26.16,3.47-1.93,2.46-3.96,2.24.17,3.27-2.85,1.29-4.71,2.96-.88,4.22-4.2,1.54-5.83,3.24-.93,2.98-5.18.4-6.48Z"/>
          <g>
            <path class="st2" d="M31.87,20.83c1.08,1.02-.43,2.2-1.64,2.06-1.11-1.03.51-2.2,1.64-2.06Z"/>
            <path class="st2" d="M27.2,25.97c1.76-.81,2.2,1.04,1.57,2.24-.47.91-2.63,3.42-3.34,1.56-.13-.35.43-2.28.66-2.71.23-.45.76-.93,1.12-1.09Z"/>
          </g>
          <g>
            <path class="st2" d="M67.3,21.27c1.12.29,4.08,2.73,3.22,3.9-.39.53-1.26.64-1.96.12-1.33-.97-3.11-3.39-1.26-4.03Z"/>
            <path class="st2" d="M73.11,22.91c.52-1.76,4.1,1.09,2.88,2.27-.3.29-1,.3-1.48-.06-.68-.51-1.53-1.76-1.4-2.21Z"/>
            <path class="st2" d="M74.37,30.04c-.81-.34-2.87-2.02-2.11-2.85.17-.19.86-.26,1.15-.16,1.2.42,2.55,2.68.96,3Z"/>
          </g>
        </g>
        <g>
          <g>
            <g>
              <path class="st8" d="M41.73,48.91c-.91,1.4-.52,3.29.89,4.2,1.41.91,3.28.51,4.2-.9.92-1.41.52-3.29-.89-4.19-1.4-.92-3.28-.52-4.2.89"/>
              <path class="st8" d="M30.23,50.41c.85-1.45.78-3.15-.63-4.06-.64-.42-1.38-.55-2.08-.45-.57,3.36-.64,5.79-.64,5.79,1.07.09,2.63-.05,3.35-1.28Z"/>
              <g>
                <g>
                  <path class="st2" d="M46.73,45.14c-3.54-3.97-7.02-1.02-7.02-1.02,0,0,.89,1.46,3.33,1.92,1.82.35,3.69-.9,3.69-.9"/>
                  <path class="st1" d="M39.71,44.12s1.69-1.44,3.95-.94c.06.18.2.54.21.73.02.9-.64,1.66-1.56,1.95-1.89-.58-2.6-1.74-2.6-1.74"/>
                </g>
                <g>
                  <path class="st2" d="M34.06,44.11c-3.27-3.67-6.51-.95-6.51-.95,0,0,.82,1.35,3.09,1.79,1.68.33,3.42-.84,3.42-.84"/>
                  <path class="st1" d="M27.55,43.16s1.57-1.33,3.65-.88c.06.17.2.5.2.68.02.83-.59,1.55-1.45,1.81-1.75-.54-2.41-1.62-2.41-1.62"/>
                </g>
                <path class="st4" d="M48.15,42.22l-.83.84c-2.58-2.55-6.39-1.97-7.73-1.32l-.51-1.06c2.09-1.02,6.29-1.2,9.07,1.55Z"/>
                <path class="st4" d="M35.41,41.36l-.83.85c-2.38-2.36-5.89-1.82-7.12-1.22l-.52-1.07c1.95-.93,5.86-1.12,8.47,1.44Z"/>
              </g>
              <path class="st5" d="M35.71,44.55c-.69-.2-3.12,6.13-3.02,6.83.15.88,3.12,1.57,3.38,1.25.73-.93.67-7.78-.37-8.08"/>
            </g>
            <path class="st5" d="M42.54,67.53l1.5,5.18c5.12-2.82,7.57-10.27,7.57-10.27,0,0-6.86,4.02-9.07,5.09Z"/>
            <path class="st8" d="M30.61,59.07c3.3,2.04,7.04.33,9.11-2.13l-1.04-.87c-1.7,2.02-4.74,3.46-7.37,1.85l-.71,1.15Z"/>
          </g>
          <path class="st6" d="M63.53,52.3c-.75,2.16-3.99,5.29-5.88,4.63-1.9-.66-1.74-4.86-.99-7.02.75-2.16,2.9-3.38,4.8-2.72,1.89.66,2.82,2.95,2.07,5.11Z"/>
        </g>
      </g>
      <g>
        <path class="st3" d="M115.35,117.61s-9.18-27.94-19.12-35.39c-8.37-6.27-16.7-9.89-31.24-10.03-2.13,5.55-5.56,14.76-13.45,12.36-4.42-1.35-6.31-7.41-7.5-11.86-7.06.39-12.68,1.44-17.88,2.79C5.04,80.94-2.21,116.66-2.62,117.61h117.97Z"/>
        <path class="st0" d="M57.35,88.74c4.54-2.09,8.56-9.77,9.3-16.51-.59-.02-1.06-.03-1.67-.04-2.13,5.55-5.56,14.76-13.45,12.36-4.42-1.35-6.29-7.51-7.5-11.86-.85.05-1.63.09-2.43.15-.05,2.42.58,4.94,1.32,7.05,1.84,5.34,6.92,12.31,14.43,8.85Z"/>
      </g>
    </g>
  </g>
</svg>