<?xml version="1.0" encoding="UTF-8"?>
<svg id="Layer_1" xmlns="http://www.w3.org/2000/svg" version="1.1" xmlns:xlink="http://www.w3.org/1999/xlink" viewBox="0 0 99.21 99.21">
  <!-- Generator: Adobe Illustrator 29.8.3, SVG Export Plug-In . SVG Version: 2.1.1 Build 3)  -->
  <defs>
    <style>
      .st0 {
        fill: #dd5013;
      }

      .st0, .st1, .st2, .st3, .st4, .st5 {
        fill-rule: evenodd;
      }

      .st6 {
        fill: #512121;
      }

      .st1 {
        fill: #fff;
      }

      .st2, .st7 {
        fill: #f0c9c0;
      }

      .st3, .st8 {
        fill: #db8e81;
      }

      .st9 {
        fill: none;
      }

      .st10 {
        fill: #4a47b0;
      }

      .st4 {
        fill: #2d2d7f;
      }

      .st5 {
        fill: #5d761e;
      }

      .st11 {
        clip-path: url(#clippath);
      }
    </style>
    <clipPath id="clippath">
      <rect class="st9" width="99.21" height="99.21"/>
    </clipPath>
  </defs>
  <rect class="st6" width="99.21" height="99.21"/>
  <g class="st11">
    <g>
      <g>
        <path class="st7" d="M59.58,53.74s2.89-3.67,3.47-9.73c-1.45-6.38-1.9-17.67-6.99-20.26-7.49-3.8-18.29-.92-22.93,4.34-3.98,4.52-7.27,14.24-7,23.72.27,9.58,4.5,17.33,15.69,13.18,1.11,3.76,2.85,9.98,3.31,11.33.92,2.75,4.02,12.88,10.14,10.17,2.69-1.19,8.05-6.69,9.73-14.3.02.45-5.19-16.05-5.4-18.46Z"/>
        <g>
          <path class="st0" d="M20.26,19.8c-.15,4.31,3.01,6.51,5.82,7.66-.65.66-3.43-.05-3.04,1.12,1.34,4.07,3.98,5.21,7.53,4.87,7.32-.68,17.4-7.64,20.2.97.99,3,1.85,12.03,3.93,12.1,2.09.07,1.64-4.59,4.2-4.98,1.26-.19,2.47.78,2.83,1.88,1.12,3.47-1.59,4.84-3.94,5.18,0,2.86-.24,7.05,1.87,8.46,3.21.76,5.18-2.3,6.76-4.89,1.81-3,2.11-11.45,1.55-15.43-.68-5.04-2.98-9.04-8.06-9.09-1.82-10.17-12.12-9.85-22.32-9-5.4.45-10.55.25-14.3.01-1.03-.06-2.99-.5-3.04,1.13Z"/>
          <g>
            <path class="st1" d="M48.41,23c1.26-1.96-4.45-2.37-4.67-.64-.26,2.02,3.48,1.54,4.53.82.07-.05.09-.11.14-.18Z"/>
            <path class="st1" d="M41.53,23.5c.8-1.71-4-2.32-3.87-.38.1,1.48,3.32,1.56,3.87.38Z"/>
          </g>
        </g>
        <g>
          <g>
            <g>
              <path class="st8" d="M40.73,48.01c-.91,1.4-.52,3.29.89,4.2,1.41.91,3.28.51,4.2-.9.92-1.41.52-3.29-.89-4.19-1.4-.92-3.28-.52-4.2.89"/>
              <path class="st8" d="M29.48,49.65c.91-1.41.52-3.29-.89-4.2-.64-.42-1.38-.55-2.08-.45-.57,3.36-.4,6.01-.4,6.01,1.07.09,2.74-.4,3.37-1.37Z"/>
              <g>
                <g>
                  <path class="st1" d="M45.72,44.25c-3.54-3.97-7.02-1.02-7.02-1.02,0,0,.89,1.46,3.33,1.92,1.82.35,3.69-.9,3.69-.9"/>
                  <path class="st5" d="M38.7,43.22s1.69-1.44,3.95-.94c.06.18.2.54.21.73.02.9-.64,1.66-1.56,1.95-1.89-.59-2.6-1.74-2.6-1.74"/>
                </g>
                <g>
                  <path class="st1" d="M33.05,43.21c-3.27-3.67-6.51-.95-6.51-.95,0,0,.82,1.35,3.09,1.79,1.69.33,3.42-.84,3.42-.84"/>
                  <path class="st5" d="M26.54,42.26s1.56-1.33,3.65-.88c.06.17.2.5.2.68.02.83-.59,1.55-1.45,1.81-1.75-.54-2.41-1.62-2.41-1.62"/>
                </g>
                <path class="st0" d="M47.14,41.32l-.83.84c-2.58-2.55-6.39-1.97-7.73-1.32l-.51-1.06c2.09-1.02,6.29-1.2,9.07,1.55Z"/>
                <path class="st0" d="M34.4,40.46l-.83.85c-2.38-2.36-5.89-1.82-7.12-1.22l-.52-1.07c1.95-.93,5.86-1.12,8.47,1.44Z"/>
              </g>
              <g>
                <path class="st3" d="M34.7,43.65c-.69-.2-3.12,6.13-3.02,6.83.15.88,3.12,1.57,3.38,1.25.73-.93.67-7.78-.36-8.08"/>
                <path class="st8" d="M29.94,56.54c3.3,2.04,7.04.33,9.11-2.13l-1.04-.87c-1.7,2.02-4.74,3.46-7.37,1.85l-.71,1.15Z"/>
              </g>
            </g>
            <path class="st3" d="M41.81,64.99l1.5,5.18c5.12-2.82,7.57-10.27,7.57-10.27,0,0-6.86,4.02-9.07,5.09Z"/>
          </g>
          <path class="st2" d="M63.72,46.2c-.75,2.16-3.99,5.29-5.88,4.63-1.9-.66-1.74-4.86-.99-7.02.75-2.16,2.9-3.38,4.8-2.72,1.89.66,2.82,2.95,2.07,5.11Z"/>
        </g>
      </g>
      <g>
        <path class="st4" d="M115.35,117.61s-9.18-27.94-19.12-35.39c-8.37-6.27-16.7-9.89-31.24-10.03-2.13,5.55-5.56,14.76-13.45,12.36-4.42-1.35-6.31-7.41-7.5-11.86-7.06.39-12.68,1.44-17.88,2.79C5.04,80.94-2.21,116.66-2.62,117.61h117.97Z"/>
        <path class="st10" d="M57.35,88.74c4.54-2.09,8.56-9.77,9.3-16.51-.59-.02-1.06-.03-1.67-.04-2.13,5.55-5.56,14.76-13.45,12.36-4.42-1.35-6.29-7.51-7.5-11.86-.85.05-1.63.09-2.43.15-.05,2.42.58,4.94,1.32,7.05,1.84,5.34,6.92,12.31,14.43,8.85Z"/>
      </g>
    </g>
  </g>
</svg>