<?xml version="1.0" encoding="UTF-8"?>
<svg id="Layer_1" xmlns="http://www.w3.org/2000/svg" version="1.1" xmlns:xlink="http://www.w3.org/1999/xlink" viewBox="0 0 99.21 99.21">
  <!-- Generator: Adobe Illustrator 29.8.3, SVG Export Plug-In . SVG Version: 2.1.1 Build 3)  -->
  <defs>
    <style>
      .st0 {
        fill: #512121;
      }

      .st1, .st2 {
        fill: #d98a69;
      }

      .st3, .st4 {
        fill: #eaaa89;
      }

      .st5 {
        fill: #fff;
      }

      .st5, .st6, .st7, .st8, .st2, .st9, .st4 {
        fill-rule: evenodd;
      }

      .st10 {
        fill: none;
      }

      .st6 {
        fill: #805330;
      }

      .st7 {
        fill: #536d19;
      }

      .st11 {
        fill: #93a334;
      }

      .st8 {
        fill: #744e27;
      }

      .st9 {
        fill: #525e16;
      }

      .st12 {
        clip-path: url(#clippath);
      }
    </style>
    <clipPath id="clippath">
      <rect class="st10" width="99.21" height="99.21"/>
    </clipPath>
  </defs>
  <rect class="st0" y="0" width="99.21" height="99.21"/>
  <g class="st12">
    <g>
      <g>
        <path class="st3" d="M61.42,53.33s3.01-3.94,3.53-10.36c-1.64-6.74-2.29-18.71-7.72-21.37-7.99-3.92-19.41-.7-24.24,4.96-4.15,4.85-7.48,15.21-7.06,25.25.43,10.16,5.04,18.31,16.83,13.73,1.38,2.71,1.14,4.35,2.34,7.27,0,0,2.24,7.74,2.24,7.74,6.16,6.69,12.18,11.33,19.94-8.22.03.48-5.59-16.44-5.85-18.99Z"/>
        <g>
          <path class="st6" d="M54.78,20.7c2.42-1,4.26-1.78,7-1.54,5.91.51,7.62,7.32,4.84,12.98,2.77,2.77,4.31,6.18,3.58,12.67-.47,4.22-3.78,13.78-8.7,12.94-2.56-.44-3.59-4.5-3.27-7.55.13-1.19,1.83-1.92,2.19-4.09.41-2.48-.32-6.01-3.86-5.18-3.2.75,1.21,10.23-3.26,8.99-3.97-1.1-5.81-11.02-5.42-15.77-2.51,1.24-11.47,1.73-15.91,1.69-4.88-.05-11.21-2.61-9.39-8.05.81-2.41,3.01-3.58,6.54-3.57-.41-1.61-.69-3.74-.3-5.38,1.61-6.7,10.9-5.25,14.08-.45.85-5.05,7.73-5.8,10.3-1.88.89,1.35,1.17,2.37,1.58,4.19Z"/>
          <g>
            <path class="st5" d="M65.35,25.7c-2-.86-4.18-1.55-4.44-4.01,2.71-.91,5.89,1.85,4.44,4.01Z"/>
            <path class="st5" d="M64.76,27.72c1.84.29.81,3.89-.67,3.81-1.34-.8-.32-3.21.67-3.81Z"/>
            <path class="st5" d="M31.06,33c-.25,0-.21.3-.28.5-2.42.56-5.12-.66-5.51-2.78,1.75-1.59,5.56.13,5.79,2.28Z"/>
            <path class="st5" d="M36.97,32.22c-.04,1.42-2.62,1.57-3.35.63-.03-1.49,2.63-1.56,3.35-.63Z"/>
            <path class="st5" d="M67.2,49.55c-.05,1.19-.39,2.06-1.61,1.98-.84-1.12.38-3.1,1.61-1.98Z"/>
            <path class="st5" d="M61.01,50.83c.25.01.51.02.77.03.76,1.19,1.88,4.39.05,5.11-1.77-.65-1.88-3.9-.81-5.15Z"/>
          </g>
        </g>
        <g>
          <path class="st2" d="M42.7,65.58c3.67-1.19,7.71-6.06,7.71-6.06,0,0,.89,7.42-5.57,12.38l-2.13-6.32Z"/>
          <g>
            <g>
              <path class="st5" d="M45.26,43.92c-3.56-3.88-6.96-.92-6.96-.92,0,0,.9,1.43,3.32,1.86,1.8.32,3.64-.94,3.64-.94"/>
              <path class="st9" d="M38.3,43s1.65-1.45,3.89-.99c.06.17.21.52.22.72.03.88-.61,1.65-1.51,1.95-1.88-.55-2.6-1.69-2.6-1.69"/>
            </g>
            <g>
              <path class="st5" d="M32.7,43.07c-3.3-3.59-6.46-.85-6.46-.85,0,0,.83,1.32,3.08,1.73,1.67.3,3.38-.88,3.38-.88"/>
              <path class="st9" d="M26.25,42.22s1.53-1.34,3.6-.92c.06.16.2.49.21.67.03.82-.56,1.54-1.4,1.81-1.74-.51-2.4-1.56-2.4-1.56"/>
            </g>
            <path class="st1" d="M40.59,48.35c-.89,1.4-.46,3.26.94,4.15,1.4.88,3.26.46,4.14-.95.89-1.4.47-3.26-.94-4.14-1.4-.88-3.25-.47-4.14.94"/>
            <path class="st1" d="M28.58,50.1c-.57.91-1.55,1.39-2.55,1.39,0-.13-.02-.25-.03-.38-.08-1.87-.03-3.76.13-5.61.51.01,1.04.15,1.5.44,1.41.89,1.83,2.74.94,4.15Z"/>
            <path class="st8" d="M46.62,41l-.81.84c-2.59-2.48-6.35-1.86-7.67-1.2l-.52-1.04c2.05-1.03,6.2-1.28,9,1.4Z"/>
            <path class="st8" d="M34,40.33l-.81.85c-2.39-2.3-5.85-1.72-7.07-1.11l-.53-1.05c1.91-.96,5.79-1.2,8.4,1.3Z"/>
            <g>
              <path class="st2" d="M34.34,43.49c-.69-.19-3,6.11-2.88,6.8.16.87,3.11,1.52,3.36,1.19.71-.93.55-7.71-.48-7.99"/>
              <path class="st1" d="M30.42,58.49c3.3,1.97,6.98.22,8.99-2.23l-1.04-.85c-1.66,2.02-4.64,3.49-7.27,1.93l-.69,1.15Z"/>
            </g>
            <g>
              <path class="st6" d="M33.95,52.42c.33,6.59-9.6,4.98-11.12-.13,3.93,1.01,6.73-2.82,11.12.13Z"/>
              <path class="st6" d="M33.24,52.38c-1.07,6.51,8.97,6.04,11.07,1.13-4.02.55-6.37-3.57-11.07-1.13Z"/>
            </g>
          </g>
          <path class="st4" d="M62.34,45.21c-.79,2.26-4.16,5.53-6.14,4.84-1.98-.69-1.82-5.07-1.03-7.33.79-2.26,3.03-3.53,5.01-2.85,1.98.69,2.95,3.08,2.17,5.34Z"/>
        </g>
      </g>
      <g>
        <path class="st7" d="M116.51,117.72s-9.18-27.94-19.12-35.39c-8.37-6.27-15.58-9.87-30.12-10.01-2.13,5.55-6.68,14.74-14.57,12.34-4.42-1.35-6.41-7.4-7.6-11.86-7.06.39-12.58,1.43-17.77,2.78C6.2,81.05-1.05,116.77-1.46,117.72h117.97Z"/>
        <path class="st11" d="M58.51,88.85c4.54-2.09,9.68-9.75,10.42-16.49-.59-.02-1.06-.03-1.67-.04-2.13,5.55-6.68,14.74-14.57,12.34-4.42-1.35-6.4-7.51-7.6-11.86-.85.05-1.52.09-2.33.15-.05,2.42.58,4.94,1.32,7.05,1.84,5.34,6.92,12.31,14.43,8.85Z"/>
      </g>
    </g>
  </g>
</svg>