<?xml version="1.0" encoding="UTF-8"?>
<svg id="Layer_1" xmlns="http://www.w3.org/2000/svg" version="1.1" viewBox="0 0 256 256">
  <!-- Generator: Adobe Illustrator 29.8.3, SVG Export Plug-In . SVG Version: 2.1.1 Build 3)  -->
  <defs>
    <style>
      .st0 {
        fill: #113659;
      }

      .st1 {
        fill: #f3d611;
      }

      .st2 {
        fill: #f5f5f5;
      }
    </style>
  </defs>
  <rect class="st0" y="0" width="256" height="256" rx="32" ry="32"/>
  <g>
    <polygon class="st2" points="228.38 225.58 205.15 225.49 183.78 195.74 183.78 225.33 183.53 225.58 164.37 225.58 164.12 225.33 164.12 156.06 183.78 156.06 183.78 185.23 204.89 156.06 227.19 156.06 202.13 189.86 228.38 225.24 228.38 225.58"/>
    <path class="st2" d="M46.95,200.49c.31,2.46.53,5.61,2.73,7.19s6.01,1.36,7.48-.97c.25-.39,1.15-2.74,1.15-3.08v-47.56h19.33v49.6c-.65,11.24-8.91,19.01-19.84,20.42-.79.1-1.84,0-2.54.34h-3.39c-.29-.31-.93-.15-1.36-.17-.24-.32-.82-.13-1.19-.17-12.54-1.81-21.42-10.5-21.36-23.57v-2.04h18.99Z"/>
    <path class="st2" d="M46.95,200.49h-18.99v2.03h-.34v-2.03h19.33Z"/>
    <path class="st2" d="M57.8,226.09l-.85.34h-1.7c.7-.33,1.76-.24,2.54-.34h0Z"/>
    <path class="st2" d="M90.36,29.57v.17c-.74-.02-1.65-.06-2.37,0v-.17h2.37Z"/>
    <path class="st2" d="M51.87,226.43h-1.53v-.17h.17c.43.02,1.07-.14,1.36.17Z"/>
    <path class="st2" d="M91.21,29.57v.17c-.28-.02-.57,0-.85,0v-.17h.85Z"/>
    <path class="st2" d="M87.98,29.74c.73-.06,1.63-.02,2.37,0,.28,0,.57-.02.85,0,4.44.28,10.64,2.04,14.53,4.21,2.44,1.36,4.57,3.2,6.75,4.92.12,0,1.45-1.56,1.58-1.78.49-.77.63-2.15,1.3-2.77,1.6-1.5,7.99-.76,10.12-.28,6.77,1.53,11.21,6.32,12,13.26.14,1.18-.05,5.27.51,5.94.28.34.85.33,1.07.8.48,1.04-.55,5.99-1.4,6.83-.8.79-1.99.5-2.98.31l-.34.44c-.8,4.63.12,9.4-.97,13.95-.93,3.89-3.14,8.58-5.48,11.81-.48.67-1.3,1.29-1.42,2.05,1.02-.54,1.85-1.72,2.51-2.66,2.43-3.45,4.06-7.86,5.12-11.92.57.06.67.77,1.2,1.09s1.4.43,1.99.64c.1.67.25,1.34.37,2,1.08,6.16,2.38,12.3,3.4,18.48h.33c.29,3.04,1.05,6.18,1.78,9.16,1.44,5.86,3,11.69,8.02,15.54l-1.92,4.47c-.89-1.14-1.63-2.43-2.29-3.73-.24-.47-.4-1.16-.65-1.64-.13-.25-.33-.83-.71-.73.1.95.83,1.88,1.19,2.71,1.23,2.86,2.8,6.04,3.86,8.94,1.45,3.95,2.69,9.58-3.01,10.39.4-1.26,1.08-2.46,1.19-3.81.11-1.26.02-3.38-.85-4.33v3.65c0,.09-.52,1.4-.62,1.6-1.23,2.46-2.97-2.61-3.1-3.65-.22-1.86.11-3.85-.19-5.74-.03-.2-.1-.4-.33-.43-.66,4.07.59,8.14,1.16,12.15.11.77.99,7.28.27,7.35-8.23-2.86-17.17-4.47-25.91-3.55-6.32.67-12.47,2.83-18.83,3.35-.51-.12.04-2.05.15-2.52.35-1.44.89-3.14,1.4-4.54.23-.64,1.16-3.4,1.68-3.57.26-.09.9,0,.9.23v2.8c1.92-2.58,3.26-6.16,4.24-9.24.88-2.75,1.63-5.66,1.52-8.57l-2.88,10.43c-.58,1.24-.86,2.73-1.98,3.63-.77.13-3.93-5.55-3.8-6.51.04-.28,1.6-2.35,1.9-2.86,1.88-3.21,3.21-6.91,3.53-10.63-.48-.08-.28.1-.36.39-.92,3.4-1.97,7.82-4.04,10.72-1.88,2.63-1.54.57-2.4-1-.6-1.1-1.29-1.36-2.35-1.89,2.47-3.18,4.06-6.7,4.97-10.63,1.36-5.85,1.57-12.44,2.15-18.45.15-1.52.19-3.06.34-4.58.13-1.33.21-2.71.34-4.07.14-1.48.71-2.96.68-4.49,0-.21.12-.73-.25-.6-.24.08-.53,4.48-.6,5.09-.15,1.36-.2,2.73-.34,4.07-.16,1.5-.34,3.07-.51,4.58-.9,8.03-1.57,16.31-5.77,23.39-.44.31-1.15-.91-1.39-1.23-1.54-2.07-3.14-4.95-4.37-7.24s-3-5.57-3.73-7.97c-.82-2.68-2.33-10.53-2.02-13.12.05-.4.34-1.42.49-1.8.2-.5.95-1.71,1.29-2.19.27-.39,1.98-2.12,1.76-2.39-1.33.94-2.5,2.5-3.26,3.95-.12.23-.08.51-.13.62-.11.22-.44.72-.68.85-.6-7.75-3.09-15.18-4.21-22.83-1.41-9.61-1.23-20.17,1.21-29.6.44-1.71,1.53-6.09,3.01-6.99.43-.26.55-.22,1.01-.26h.03ZM110.71,72.47c.12.09.81-.83,1.02-.93.26-.12.59-.06.84-.18.58-.28,1.49-4.04,1.29-4.67-.23-.69-2.06-1.34-2.64-1.94-2.29-2.38-.8-6.57-1.62-9.4l-6.35-4.59c0,.66.67,1,1.01,1.45,3.06,3.98,3.92,7.11,1.52,11.84,2.93,1.91,4.62,4.94,4.93,8.42ZM128.34,64.67c-.19-.2-1.01.51-1.31.63-1.1.44-2.59.44-3.74.85-.27.1-.45-.09-.37.38,1.31.1,2.6-.21,3.82-.67.27-.1,2.07-.71,1.61-1.19h0ZM114.1,87.9c.21.3,1.33,2.52,1.86,2.03-.31-.95-1.18-1.49-1.69-2.37-1.16-1.99-2.23-6.09-2.38-8.39-.12-1.84.21-4,.01-5.78-.03-.25-.04-.52-.34-.59-.53,4.38-.79,8.93,1.15,13,.38.79.91,1.38,1.39,2.09h0ZM106.64,78.23c-.04.33-.34,1.18-.34,1.44v2.8c.27,0,.28-.58.32-.79.19-1.14.1-2.32.36-3.45l.42-3.05c-1.13.58-.65,2.05-.76,3.05ZM126.39,89.6v.17c.11-.06.11-.11,0-.17ZM125.63,89.93c-.39.26-.75.57-1.13.82s-1.11.22-1.08.87c.3.27,2.3-1.14,2.54-1.53l.17-.08c-.03-.11-.12-.06-.17-.08-.05-.02-.12.01-.17,0l-.09-.17c-.06.04-.05.15-.08.17h0Z"/>
    <polygon class="st2" points="108.5 156.06 133.93 194.72 133.93 156.06 153.26 156.06 153.26 225.58 134.19 225.58 108.5 187.26 108.5 225.33 108.25 225.58 89 225.58 89 156.06 108.5 156.06"/>
    <path class="st2" d="M198.37,69.93c0,.08-.28.25-.17.51.31-.03.25-.35.34-.51.57-1.1.96-2.12,1.02-3.39,3.39,2.89.33,5.9-2.13,7.96-2.77,2.33-5.45,3.31-7.68,6.39-1.37,1.9-2.39,4.1-3.94,5.9-4.56,5.32-12.98,6.7-19.66,6.53,1.44,4.16-.61,8.31-2.88,11.7-1.74,2.6-4.04,5.43-5.93,7.97s-4.38,5.02-5.68,8.13c-4.56-3.4-6.44-9.05-7.87-14.34-.86-3.17-1.55-6.52-2.22-9.74-1.25-6.03-2.55-12.42-3.56-18.48l-.34-2.03c.17-.12,3.62.45,4.08.58s.4.22.67.43c-.2.14-2.02,1.21-1.69,1.53.81-.16,1.44-.85,2.03-1.36,1.12-.95,2.05-2.14,3.14-3.05,4.65-3.89,12.04-5.51,17.71-3.06-1.38,1.59-2.19,3.19-3.05,5.08l-.17.34s.02.12,0,.17c-.11.24-.98,1.73-.85,1.86.53.51.91-1.32,1.02-1.53,2.18-4.19,5.96-10.47,10.85-11.62,3.73-.88,7.29-.02,8.36,4.02.09.36.28,2.34.54,2.34.35-.23.24-.39.21-.71-.11-1.5-.81-2.93-1.14-4.37.29-.27,2.62.85,2.97.85h3.65l-5.43-1.43c-1.94-.98-2.61-3.02-3.17-4.97-1.29-4.49-1.34-9.16-3.81-13.31-.27-.46-1.84-2.39-1.65-2.66.87-.15,1.38-.95,1.69-1.7-1.02.43-1.59,1.44-2.88,1.18l1.83-2.66.54-1.41c-.43-.1-.3.11-.44.32-.86,1.22-1.78,3.74-3.67,3.38-1.41-.27-.99-1.81-2.16-2.17-.04,1.64,2.46,2.75.59,4.24-1.6,1.27-3.12.38-3.7-1.39-.25-.77-.22-1.61-.5-2.39-.64-1.82-1.5-1.33-.89.55.27.85,2.19,3.53,1.76,4.22-1.54.68-2.77-.32-3.16-1.8-.19-.74.03-1.94-.72-2.42,0,.97-.11,1.82.21,2.76.42,1.27,2.87,3.16,2.25,4.53-.88,1.91-4.02-.85-4.45-2.16-.3-.91-.16-1.99-.44-2.96-.05-.18-.04-.51-.29-.47v2.54c-2.89.38-3.19-1.42-3.05-3.81.09-1.62.66-4.43,2.04-5.42,1.66-1.19,8.07-2.57,10.25-2.81,7.47-.81,8.6,3.44,13.31,7.72,7.32,6.65,17.88,12.34,18.47,23.58-.27.92-.08,1.86-.15,2.78v.04Z"/>
    <path class="st1" d="M89.51,103.5c.73,2.4,2.52,5.71,3.73,7.97-10.94,6.04-29.82,17.1-17.38,31.37,3.15,3.62,7.35,6.43,11.4,8.95l4.46,2.41c-9.01-1.39-17.54-5.03-24.98-10.2-4.68-3.25-9.63-7.03-11.05-12.85-3.17-13,14.86-21.28,24.58-24.76,3.04-1.09,6.15-1.97,9.24-2.88h0Z"/>
    <path class="st1" d="M163.27,105.02c9.27,3.02,22.38,7.54,27.61,16.39,4.99,8.44-.06,15.29-6.67,20.56-8.09,6.44-17.92,10.48-28.05,12.38,2.85-2.05,6.18-3.42,9.11-5.39,9.03-6.04,15.67-15.11,7.09-24.97-3.95-4.54-9.7-8.28-15.01-11.02,1.89-2.54,4.19-5.37,5.93-7.97v.02Z"/>
    <path class="st2" d="M138,78.57c1.01,6.06,2.31,12.45,3.56,18.48h-.5c-1.01-6.18-2.32-12.32-3.4-18.48,0,0,.34,0,.34,0Z"/>
    <path class="st2" d="M87.98,88.58h-.34c.05-.11.01-.4.13-.62.76-1.45,1.93-3.02,3.26-3.95.22.27-1.49,2-1.76,2.39-.33.48-1.08,1.69-1.29,2.19h0Z"/>
    <path class="st2" d="M105.45,91.97c-.15,1.52-.19,3.06-.34,4.58h-.34c.17-1.51.35-3.08.51-4.58,0,0,.17,0,.17,0Z"/>
    <path class="st2" d="M146.82,122.83c-.36-.83-1.09-1.77-1.19-2.71.38-.1.57.48.71.73.25.48.41,1.17.65,1.64l-.17.34Z"/>
    <path class="st2" d="M142.75,77.73c-.59.5-1.23,1.2-2.03,1.36-.33-.32,1.49-1.38,1.69-1.53.09.07.24.1.34.17Z"/>
    <path class="st2" d="M160.56,77.56c-.11.21-.49,2.03-1.02,1.53-.13-.13.74-1.62.85-1.86l.17.34h0Z"/>
    <path class="st2" d="M198.54,69.93c-.08.16-.02.48-.34.51-.11-.25.16-.43.17-.51h.17Z"/>
    <path class="st2" d="M160.39,77.05l.17-.34c-.06.13-.13.25-.17.34Z"/>
    <path class="st2" d="M50.51,226.26h-.17c-.45-.03-.68-.12-1.02-.17.37.04.95-.15,1.19.17Z"/>
    <path class="st2" d="M114.27,87.56l-.17.34c-.48-.7-1.01-1.3-1.39-2.09-1.95-4.08-1.68-8.62-1.15-13,.31.06.32.33.34.59.2,1.78-.14,3.94-.01,5.78.15,2.3,1.22,6.39,2.38,8.39h0Z"/>
    <path class="st2" d="M128.34,64.67c.46.48-1.33,1.09-1.61,1.19-1.22.46-2.51.78-3.82.67-.08-.47.1-.28.37-.38,1.15-.41,2.64-.41,3.74-.85.31-.12,1.12-.83,1.31-.63h0Z"/>
    <path class="st2" d="M105.62,87.9c.07-.6.35-5,.6-5.09.38-.13.25.38.25.6.03,1.53-.54,3.01-.68,4.49,0,0-.17,0-.17,0Z"/>
    <path class="st2" d="M106.97,78.23c-.26,1.13-.17,2.31-.36,3.45-.03.2-.05.79-.32.79v-2.8c0-.26.3-1.11.34-1.44,0,0,.34,0,.34,0Z"/>
    <path class="st2" d="M105.45,91.97h-.17c.14-1.34.19-2.71.34-4.07h.17c-.13,1.36-.21,2.74-.34,4.07Z"/>
    <path class="st2" d="M125.8,89.93c.05.01.12-.02.17,0v.17c-.24.38-2.25,1.8-2.54,1.53-.03-.65.71-.63,1.08-.87s.74-.56,1.13-.82h.17,0Z"/>
    <path class="st2" d="M106.64,78.23c.11-1-.37-2.48.76-3.05l-.42,3.05h-.34Z"/>
    <path class="st2" d="M114.27,87.56c.51.88,1.39,1.42,1.69,2.37-.53.49-1.66-1.73-1.86-2.03,0,0,.17-.34.17-.34Z"/>
  </g>
</svg>